<svg xmlns="http://www.w3.org/2000/svg" version="1.1" xmlns:xlink="http://www.w3.org/1999/xlink" width="512"
    height="512" x="0" y="0" viewBox="0 0 48 48" style="enable-background:new 0 0 512 512" xml:space="preserve"
    class="">
    <g>
        <path fill="#f04b36"
            d="M37.9 2.2c.3-.1.6 0 .8.1.5.3.8.8.9 1.5l1 5.4h1.7l-1-5.7c-.2-1.2-.8-2.1-1.7-2.7-.7-.4-1.5-.5-2.2-.3L9.6 9.1l5.2.1z"
            opacity="1" data-original="#f04b36"></path>
        <path fill="#f7a93b"
            d="M44.9 9.2h-30l-5.3-.1c-.7.2-1.4.7-1.8 1.5-.3.5-.4 1-.4 1.6V26c1.1-.3 2.3-.5 3.5-.5 6.9 0 12.5 5.4 12.5 12 0 1.1-.1 2.1-.4 3.1h21.9c1.4 0 2.6-1.3 2.6-2.9v-6.5H35.3c-.5 0-.8-.4-.8-.8V19.7c0-.5.4-.8.8-.8h12.2v-6.7c0-1.6-1.2-3-2.6-3z"
            opacity="1" data-original="#f7a93b" class=""></path>
        <path fill="#e77528"
            d="M36.1 29.5h11.4v-9H36.1zm5.2-6.2c.8 0 1.5.8 1.5 1.7 0 1-.7 1.7-1.5 1.7s-1.5-.8-1.5-1.7.7-1.7 1.5-1.7z"
            opacity="1" data-original="#e77528"></path>
        <path fill="#0db89a"
            d="M11 27.4C5.2 27.4.5 31.9.5 37.4s4.7 10 10.5 10c4.3 0 8.3-2.6 9.8-6.5.4-1.1.7-2.3.7-3.5 0-5.5-4.7-10-10.5-10zm4 11h-3v3c0 .5-.4 1-1 1-.5 0-1-.4-1-1v-3H7c-.5 0-1-.4-1-1 0-.5.4-1 1-1h3v-3c0-.5.4-1 1-1 .5 0 1 .4 1 1v3h3c.5 0 1 .4 1 1s-.4 1-1 1z"
            opacity="1" data-original="#0db89a"></path>
    </g>
</svg>