<svg xmlns="http://www.w3.org/2000/svg" version="1.1" xmlns:xlink="http://www.w3.org/1999/xlink" width="512"
    height="512" x="0" y="0" viewBox="0 0 512 512" style="enable-background:new 0 0 512 512" xml:space="preserve"
    fill-rule="evenodd" class="">
    <g>
        <path fill="#ffd26f"
            d="M296.135 511.953a159.657 159.657 0 0 1-43.392-5.986 11.997 11.997 0 0 1-8.74-11.544c0-5.37 3.57-10.09 8.74-11.544 58.055-16.384 98.6-70.004 98.6-130.4 0-60.394-40.542-114.016-98.6-130.395a12.006 12.006 0 0 1-8.74-11.548c0-5.374 3.57-10.089 8.74-11.547a159.8 159.8 0 0 1 43.392-5.982c87.93 0 159.471 71.541 159.471 159.47 0 87.935-71.537 159.475-159.471 159.475z"
            opacity="1" data-original="#ffd26f" class=""></path>
        <path fill="#ffe187"
            d="M215.867 511.953c-87.932 0-159.473-71.54-159.473-159.473 0-87.93 71.54-159.471 159.473-159.471 87.93 0 159.471 71.54 159.471 159.471 0 87.932-71.54 159.473-159.471 159.473z"
            opacity="1" data-original="#ffe187" class=""></path>
        <g fill="#f16461">
            <path
                d="M178.014 155.663c-6.63 0-11.998-5.37-11.998-11.998V15.84c0-6.63 5.368-11.997 11.998-11.997 6.628 0 11.998 5.368 11.998 11.997v127.825c0 6.629-5.37 11.998-11.998 11.998z"
                fill="#f16461" opacity="1" data-original="#f16461"></path>
            <path
                d="M226.709 72.742c-3.07 0-6.14-1.17-8.487-3.511l-40.21-40.214L137.8 69.231c-4.69 4.683-12.286 4.678-16.967 0-4.687-4.688-4.687-12.282 0-16.967l48.699-48.7c4.687-4.688 12.28-4.688 16.967 0l48.694 48.693c4.688 4.688 4.688 12.281 0 16.968a11.954 11.954 0 0 1-8.484 3.517zM333.991 155.663c-6.628 0-11.998-5.37-11.998-11.998V15.84c0-6.63 5.37-11.997 11.998-11.997 6.63 0 11.998 5.368 11.998 11.997v127.825c0 6.629-5.37 11.998-11.998 11.998z"
                fill="#f16461" opacity="1" data-original="#f16461"></path>
            <path
                d="M382.685 72.742c-3.07 0-6.14-1.17-8.482-3.511l-40.21-40.214-40.212 40.214c-4.677 4.683-12.277 4.683-16.963 0-4.688-4.688-4.688-12.282 0-16.967l48.69-48.7a11.998 11.998 0 0 1 16.964 0l48.692 48.693c4.687 4.688 4.687 12.281 0 16.968a11.933 11.933 0 0 1-8.479 3.517z"
                fill="#f16461" opacity="1" data-original="#f16461"></path>
        </g>
        <path fill="#fefefe"
            d="M215.865 442.87c-28.228 0-51.195-22.965-51.195-51.195 0-6.628 5.37-11.998 11.998-11.998 6.628 0 11.997 5.37 11.997 11.998 0 15.002 12.202 27.2 27.2 27.2 15.001 0 27.202-12.202 27.202-27.2 0-19.563-9.194-22.575-29.981-27.523-19.28-4.595-48.416-11.531-48.416-50.87 0-28.227 22.966-51.194 51.195-51.194s51.198 22.966 51.198 51.195c0 6.628-5.37 11.997-11.998 11.997-6.629 0-11.998-5.369-11.998-11.997 0-15.002-12.202-27.2-27.202-27.2-14.998 0-27.2 12.203-27.2 27.2 0 19.563 9.194 22.575 29.982 27.524 19.28 4.593 48.415 11.531 48.415 50.868 0 28.228-22.966 51.195-51.197 51.195z"
            opacity="1" data-original="#fefefe"></path>
        <path fill="#fefefe"
            d="M215.865 286.08c-6.63 0-11.998-5.37-11.998-11.998v-22.226c0-6.628 5.368-11.998 11.998-11.998 6.628 0 11.998 5.37 11.998 11.998v22.226c0 6.627-5.37 11.998-11.998 11.998zM215.865 465.095c-6.63 0-11.998-5.37-11.998-11.998v-22.226c0-6.628 5.368-11.997 11.998-11.997 6.628 0 11.998 5.369 11.998 11.997v22.226c0 6.629-5.37 11.998-11.998 11.998z"
            opacity="1" data-original="#fefefe"></path>
    </g>
</svg>