<svg xmlns="http://www.w3.org/2000/svg" version="1.1" xmlns:xlink="http://www.w3.org/1999/xlink" width="512"
    height="512" x="0" y="0" viewBox="0 0 120 120" style="enable-background:new 0 0 512 512" xml:space="preserve"
    class="">
    <g>
        <path fill="#46a350" fill-rule="evenodd"
            d="m63.187 82.35-27.28 27.444c-.5-1 .093-2.294 0-3.469L45.5 79c12.013 0 15.753-2.265 17.687 3.35z"
            clip-rule="evenodd" opacity="1" data-original="#46a350"></path>
        <path fill="#099718"
            d="M109.093 35.08c2.257-3.967-1.546-8.635-5.887-7.228L15.398 56.306c-4.225 1.37-4.701 7.158-.756 9.198l55.345 28.624a5 5 0 0 0 6.643-1.969z"
            opacity="1" data-original="#099718" class=""></path>
        <path fill="#005513"
            d="M69.973 60.17c1.567-2.237-.855-5.35-3.473-4.17L34.099 70.842a5 5 0 0 0-2.918 4.546l3.363 33.566c.107 1.068 1.592 1.24 1.941.225l8.603-25.027a10.057 10.057 0 0 1 3.058-4.444c5.517-4.624 19.9-16.789 21.827-19.539z"
            opacity="1" data-original="#005513" class=""></path>
        <path fill="#ffba33" d="M31 39c0 16.016 12.984 29 29 29s29-12.984 29-29-12.984-29-29-29-29 12.984-29 29z"
            opacity="1" data-original="#ffba33" class=""></path>
        <path fill="#ffffff" fill-rule="evenodd"
            d="M62 25a2 2 0 1 0-4 0v2h-3.878c-2.268 0-4.106.893-5.353 2.33C47.56 30.727 47 32.525 47 34.25s.558 3.523 1.77 4.92c1.246 1.437 3.084 2.33 5.352 2.33H58V48h-7.526a2 2 0 1 0 0 4H58v2a2 2 0 1 0 4 0v-2h3.878c2.268 0 4.106-.893 5.353-2.33C72.44 48.273 73 46.475 73 44.75s-.558-3.523-1.77-4.92c-1.246-1.437-3.084-2.33-5.352-2.33H62V31h6.805a2 2 0 0 0 0-4H62zm-4 6h-3.878c-1.147 0-1.87.42-2.33.951-.497.572-.792 1.4-.792 2.299s.295 1.727.791 2.299c.462.532 1.184.951 2.33.951H58zm4 10.5V48h3.878c1.147 0 1.87-.42 2.33-.951.497-.572.792-1.4.792-2.299s-.295-1.727-.791-2.299c-.462-.532-1.184-.951-2.331-.951z"
            clip-rule="evenodd" opacity="1" data-original="#ffffff" class=""></path>
    </g>
</svg>