<svg xmlns="http://www.w3.org/2000/svg" version="1.1" xmlns:xlink="http://www.w3.org/1999/xlink" width="512"
    height="512" x="0" y="0" viewBox="0 0 512 511" style="enable-background:new 0 0 512 512" xml:space="preserve"
    class="">
    <g>
        <path fill="#0bd5dd" d="M512 409.887 349.957 307.78v44.293H256l-10.676 53.653L256 467.699h93.957v44.293zm0 0"
            opacity="1" data-original="#0bd5dd" class=""></path>
        <path fill="#00e5ee"
            d="m221.39 352.074-96.85-94.164v109.18c0 55.476 45.132 100.61 100.608 100.61H256V352.073zm0 0" opacity="1"
            data-original="#00e5ee"></path>
        <path fill="#0dd141"
            d="M286.852 44.793H256L234.645 96.09 256 160.418h34.61l96.85 94.164v-109.18c0-55.476-45.132-100.609-100.608-100.609zm0 0"
            opacity="1" data-original="#0dd141" class=""></path>
        <path fill="#52e161" d="M162.047 44.793V.5L0 102.605l162.047 102.102v-44.289H256V44.793zm0 0" opacity="1"
            data-original="#52e161" class=""></path>
        <path fill="#fc7419"
            d="m256 124.95-10.676 134.464L256 387.543c72.512 0 131.297-58.785 131.297-131.297S328.512 124.95 256 124.95zm0 0"
            opacity="1" data-original="#fc7419" class=""></path>
        <path fill="#fda102"
            d="M124.707 256.246c0 72.512 58.781 131.297 131.293 131.297V124.949c-72.512 0-131.293 58.785-131.293 131.297zm0 0"
            opacity="1" data-original="#fda102" class=""></path>
        <path fill="#fdae02"
            d="m256 109.934-10.676 10.68L256 139.963c64.117 0 116.281 52.165 116.281 116.282 0 64.117-52.164 116.281-116.281 116.281l-10.676 15.016L256 402.555c80.676 0 146.309-65.633 146.309-146.309S336.676 109.934 256 109.934zm0 0"
            opacity="1" data-original="#fdae02" class=""></path>
        <path fill="#fdcb02"
            d="M139.719 256.246c0-64.117 52.164-116.281 116.281-116.281v-30.031c-80.676 0-146.309 65.636-146.309 146.312 0 80.676 65.633 146.309 146.309 146.309v-30.028c-64.117 0-116.281-52.164-116.281-116.28zm0 0"
            opacity="1" data-original="#fdcb02" class=""></path>
        <path fill="#fdd535"
            d="M259.2 225.71c10.015 0 20.687 2.794 32.01 8.54l11.657-28.074c-9.355-5.254-21.176-8.371-33.324-9.52V179.09H256l-10.676 37.617L256 225.82c.996-.066 2.05-.11 3.2-.11zM256 240.21l-10.676 19.204L256 272.454c7.91 1.8 13.543 3.788 13.543 8.089 0 3.766-3.617 6.027-13.543 6.219l-10.676 15.363L256 333.402h13.543V315.18c25.445-4.43 38.25-19.864 38.25-37.594 0-30.727-33.434-33.113-51.793-37.375zm0 0"
            opacity="1" data-original="#fdd535" class=""></path>
        <g fill="#feea9a">
            <path
                d="M254.605 286.781c-12.64 0-27.085-4.105-37.921-10.508l-12.477 28.235c9.852 6.074 25.773 10.508 42.191 11.492v17.402H256v-46.64c-.457.008-.91.02-1.395.02zM246.398 196.984c-26.925 3.774-40.386 19.371-40.386 37.922 0 30.09 31.332 33.297 49.988 37.547v-32.242c-6.945-1.61-11.738-3.492-11.738-7.277 0-3.54 2.937-6.54 11.738-7.114v-46.73h-9.602zm0 0"
                fill="#feea9a" opacity="1" data-original="#feea9a"></path>
        </g>
    </g>
</svg>