<svg xmlns="http://www.w3.org/2000/svg" version="1.1" xmlns:xlink="http://www.w3.org/1999/xlink" width="512"
    height="512" x="0" y="0" viewBox="0 0 24 24" style="enable-background:new 0 0 512 512" xml:space="preserve"
    class="">
    <g>
        <circle cx="12" cy="12" r="12" fill="#7f2fed" opacity="1" data-original="#2f80ed" class=""></circle>
        <path fill="#ffffff"
            d="M16.7 20H7.3c-.8 0-1.5-.7-1.5-1.5V6.9c0-.8.7-1.5 1.5-1.5h9.5c.8 0 1.5.7 1.5 1.5v11.6c-.1.8-.8 1.5-1.6 1.5zM7.3 6.9v11.6h9.5V6.9z"
            opacity="1" data-original="#ffffff" class=""></path>
        <path fill="#ffffff"
            d="M9.8 7.6c-.4 0-.7-.3-.7-.7V4.7c0-.4.3-.7.7-.7s.7.3.7.7v2.2c0 .4-.2.7-.7.7zM14.2 7.6c-.4 0-.7-.3-.7-.7V4.7c0-.4.3-.7.7-.7s.7.3.7.7v2.2c0 .4-.3.7-.7.7zM14.9 10.9H9.1c-.4 0-.7-.3-.7-.7s.3-.7.7-.7h5.8c.4 0 .7.3.7.7s-.3.7-.7.7zM13.5 13.8H9.1c-.4 0-.7-.3-.7-.7s.3-.7.7-.7h4.4c.4 0 .7.3.7.7s-.3.7-.7.7zM12 16.7H9.1c-.4 0-.7-.3-.7-.7s.3-.7.7-.7H12c.4 0 .7.3.7.7s-.3.7-.7.7z"
            opacity="1" data-original="#ffffff" class=""></path>
    </g>
</svg>